<svg xmlns="http://www.w3.org/2000/svg" xmlns:xlink="http://www.w3.org/1999/xlink" width="472.403" height="160.492" viewBox="0 0 472.403 160.492">
  <defs>
    <radialGradient id="radial-gradient" cx="0.298" cy="0.286" r="0.577" gradientTransform="translate(-0.088) scale(1.176 1)" gradientUnits="objectBoundingBox">
      <stop offset="0" stop-color="#fff"/>
      <stop offset="0.42" stop-color="#ede73f"/>
      <stop offset="1" stop-color="#fdc426"/>
    </radialGradient>
    <radialGradient id="radial-gradient-2" cx="0.259" cy="0.196" r="0.773" gradientTransform="translate(0.02) scale(0.961 1)" xlink:href="#radial-gradient"/>
  </defs>
  <g id="logo" transform="translate(-10.14 -78.674)">
    <path id="Path_2331" data-name="Path 2331" d="M135.66,243.352c27.071-26.267,53.63-38.712,69.776-44.76,36.667-13.733,56.077-8.08,60.588-6.638,6.838,2.188,20.765,6.655,27.062,20.083,4.762,10.171,2.728,20.3,1.589,24.57a25.869,25.869,0,0,0-1.25-12.651c-4.729-12.586-19.077-17.348-27.229-19.919-26.791-8.455-52.228-.88-66.544,3.575A180.827,180.827,0,0,0,135.66,243.352Z" transform="translate(-101.613 -89.78)" fill="#d4d3d3"/>
    <path id="Path_2332" data-name="Path 2332" d="M179.242,599.69c-24.224,31.427-56.79,46.664-73.126,52.188-33.924,11.461-54.6,9.419-60.889,7.809-6.954-1.775-22.125-4.682-28.858-17.9-5.095-10.011-4.971-18.5-3.971-22.8-.328,3.164,1.143,7.154,3.518,11.809,5.9,11.573,20.513,14.536,28.745,16.843,27.046,7.577,52.23-.823,66.393-5.745C125.527,636.848,154.822,622.019,179.242,599.69Z" transform="translate(-1.384 -421.78)" fill="#d4d3d3"/>
    <path id="Path_2333" data-name="Path 2333" d="M262.174,94.438l.017-.145c-.381-.19-.762-.4-1.143-.583a41.193,41.193,0,0,0-25.829-3.343,45.749,45.749,0,0,0-28.9,17.333c-6.424,8.28-9.346,17.651-7.885,28.159a31.447,31.447,0,0,0,9.828,18.879c7.123,6.763,15.778,9.879,25.477,10.258a44.949,44.949,0,0,0,18.31-3.217c1.12-.438,2.209-.952,3.265-1.409-2.587,0-5.175.118-7.75-.025a32.357,32.357,0,0,1-15.786-5.013c-8.019-5.1-12.784-12.346-13.824-21.848a30.447,30.447,0,0,1,2.817-16.22c6.666-14.531,22.648-24.018,38.691-23Z" transform="translate(-152.128 -8.864)"/>
    <path id="Path_2334" data-name="Path 2334" d="M529.54,533.206a3.672,3.672,0,0,0,.5.087q4.728,0,9.453.013c.516,0,.619-.3.71-.7.7-3.067,1.4-6.137,2.135-9.2q1.465-6.106,2.99-12.19a11.737,11.737,0,0,1,3.259-5.333,2.1,2.1,0,0,1,3.51.56,4.9,4.9,0,0,1,.653,2.92c-.179,1.459-.251,2.941-.572,4.381-1.364,6.223-2.8,12.428-4.209,18.639-.2.9-.191.935.762.935,2.872,0,5.743-.023,8.613.019.729.011.992-.229,1.154-.93,1.6-6.845,3.238-13.679,4.861-20.519a12.481,12.481,0,0,1,3.394-5.941,2.134,2.134,0,0,1,3.619.562,5.523,5.523,0,0,1,.634,3.289,27.338,27.338,0,0,1-.369,2.792q-1.486,6.884-3.036,13.75c-.509,2.274-1.046,4.543-1.59,6.9.381.021.668.053.964.055,2.846,0,5.693-.029,8.537.021.794.015,1.1-.244,1.266-1,1.143-5.051,2.324-10.095,3.48-15.137a25.089,25.089,0,0,0,.647-10.262c-.708-3.857-2.666-6.667-6.638-7.7a12.854,12.854,0,0,0-11.856,2.329c-.731.583-1.431,1.206-2.139,1.807a.674.674,0,0,1-.139-.107,1.784,1.784,0,0,1-.147-.267,6.907,6.907,0,0,0-5.32-4,15.057,15.057,0,0,0-11.853,2.646,22.518,22.518,0,0,0-8.964,13.211c-1.131,4.293-2.057,8.64-3.068,12.963C530.373,529.58,529.969,531.355,529.54,533.206Z" transform="translate(-420.472 -340.02)"/>
    <path id="Path_2335" data-name="Path 2335" d="M372.264,500.325a2.3,2.3,0,0,0-.381-.08q-4.611,0-9.22-.015c-.541,0-.6.327-.69.714-1.276,5.745-2.531,11.5-3.844,17.233a58.789,58.789,0,0,1-1.726,6.457,6.275,6.275,0,0,1-4.87,4.167,23.714,23.714,0,0,1-11.224-.276,2.731,2.731,0,0,1-2.135-2.434,13.073,13.073,0,0,1,.1-3.914c1.408-6.653,2.926-13.279,4.4-19.917.141-.632.261-1.27.413-2.023h-1.03c-2.691,0-5.385.034-8.076-.021-.8-.017-1.088.236-1.255,1-1.545,7.089-3.131,14.169-4.7,21.252a12.666,12.666,0,0,0-.139,5.96c.846,3.293,3.2,5.057,6.285,6.023a28.394,28.394,0,0,0,7.122,1.143,49.311,49.311,0,0,0,13.333-.85c6.817-1.507,11.238-5.487,12.761-12.43q2-9.068,4.017-18.133C371.693,502.91,371.977,501.63,372.264,500.325Z" transform="translate(-256.983 -341.252)"/>
    <path id="Path_2336" data-name="Path 2336" d="M509.547,171.758l-.067.209c1.471,1.16,2.922,2.347,4.426,3.463a.852.852,0,0,1,.3,1.259c-.726,1.59-1.39,3.209-2.08,4.828-.112.263-.191.537-.358.975.381-.234.594-.36.8-.5,1.558-1.048,3.126-2.1,4.668-3.158a.739.739,0,0,1,1.057.046c1.118.918,2.27,1.794,3.409,2.688l1.333,1.036c-.468-2.128-.87-4.034-1.316-5.931a.955.955,0,0,1,.48-1.187c1.514-.979,2.994-2.007,4.486-3.019.259-.173.51-.358.941-.663H523.2c-.809,0-1.87.257-2.358-.15-.518-.434-.507-1.514-.7-2.32-.31-1.318-.6-2.64-.952-4.166-.2.419-.31.636-.41.861-.743,1.7-1.5,3.383-2.213,5.093a.914.914,0,0,1-1.015.657C513.55,171.739,511.548,171.758,509.547,171.758Z" transform="translate(-404.232 -70.022)"/>
    <path id="Path_2337" data-name="Path 2337" d="M196.622,130.638a34.772,34.772,0,0,0-3.962-13.978,31.567,31.567,0,0,0-8.131-9.523,44.9,44.9,0,0,0-15-7.645,73.967,73.967,0,0,0-19.527-3,84.873,84.873,0,0,0-14.567.743c-4.436.625-8.841,1.419-13.257,2.192-1.642.286-3.251.731-4.952,1.112-.655-2.912-1.291-5.783-1.958-8.811-.625,1.461-1.187,2.764-1.749,4.057-.571,1.333-1.175,2.647-1.714,4a1.239,1.239,0,0,1-1.366.964c-2.457-.065-4.924-.023-7.392-.023h-.945c1.356,1.1,2.552,2.067,3.918,3.167a184.678,184.678,0,0,0-37.992,17.931v-1.187a29.841,29.841,0,0,1,3.047-12.367A35.364,35.364,0,0,1,80.708,96.19a39.145,39.145,0,0,1,14.55-7.476c4.893-1.345,9.933-1.356,14.942-1.621,1.154-.063,2.308-.116,3.619-.179-2.337-2.465-4.7-4.64-7.864-5.7-1.524-.507-3.047-.973-4.585-1.345a44.374,44.374,0,0,0-16.616-.741,49.448,49.448,0,0,0-17.418,5.836A48.519,48.519,0,0,0,52.17,97.973a40.73,40.73,0,0,0-7.942,17.473,35.181,35.181,0,0,0-.074,13.226,32.988,32.988,0,0,0,2.425,7.729.95.95,0,0,1-.17,1.293c-2.011,1.775-4.065,3.514-5.971,5.407-2.933,2.912-5.771,5.92-8.621,8.916-.964,1.006-1.8,2.118-2.7,3.186a8.233,8.233,0,0,0,1.219-1.131c2.3-2.267,4.51-4.628,6.925-6.758,3.177-2.815,6.524-5.453,9.8-8.163.434-.36.729-.307,1.027.191a29.14,29.14,0,0,0,1.621,2.628,37.335,37.335,0,0,0,5.537,6.226,38,38,0,0,0,13.312,7.708c1.916.636,3.886,1.124,5.92,1.714-.646,2.889-1.3,5.834-1.96,8.779-.2-.044-.274-.044-.286-.074-.232-.446-.444-.9-.688-1.333a14.4,14.4,0,0,0-8.356-6.883,29.78,29.78,0,0,0-14.815-.741A24.793,24.793,0,0,0,35.916,163.3a23.159,23.159,0,0,0-7.276,12.135c-1.122,4.573-2.147,9.169-3.219,13.775-.455,1.969-.91,3.941-1.377,5.994H36.285c1.981,0,1.969,0,2.383-1.969.286-1.377.6-2.752.889-4.087H55.485c-.434,2.044-.848,4.013-1.27,5.973a1.085,1.085,0,0,0,.137.051c4.522.011,9.043.032,13.565.011.19,0,.5-.307.55-.53.35-1.377.648-2.764.964-4.141.065-.274.16-.55.288-.985.56.785.973,1.43,1.47,2.023a12.079,12.079,0,0,0,6.619,3.781,36.976,36.976,0,0,0,11.31.973,82.281,82.281,0,0,0,8.24-.836,17.881,17.881,0,0,0,8.735-3.832c.5-.413,1.008-.827,1.524-1.251.074.053.149.1.213.139-.339,1.535-.669,3.082-1.017,4.647h14.154c.669-2.857,1.314-5.7,1.981-8.523,1.091-4.617,2.2-9.224,3.293-13.841a10.777,10.777,0,0,1,2.912-5.4c.5-.476.783-.476,1.017.17a3.178,3.178,0,0,1,.286,1.3,26.774,26.774,0,0,1-.425,4.225c-1.408,6.438-2.9,12.857-4.362,19.283l-.615,2.775h14.169c.571-2.476,1.124-4.893,1.7-7.306q1.9-7.942,3.823-15.9a10.03,10.03,0,0,1,2.585-4.489c.571-.613.857-.571,1.185.211a2.52,2.52,0,0,1,.244,1.091,27.793,27.793,0,0,1-.413,4c-1.312,6.024-2.7,12.018-4.055,18.022-.328,1.451-.667,2.891-1.027,4.447h11.775a1.878,1.878,0,0,1-.678.838,153.843,153.843,0,0,1-15.576,9.382c-3.3,1.714-6.64,3.388-10.049,4.861q-6.4,2.777-12.94,5.2a149.174,149.174,0,0,1-18.94,5.5,133.01,133.01,0,0,1-17.272,2.912c-3.76.349-7.52.729-11.278.869a94.652,94.652,0,0,1-14.6-.413c-2.912-.35-5.824-.667-8.716-1.166a63.483,63.483,0,0,1-14.529-4.32,38.462,38.462,0,0,1-11.691-7.546,22.553,22.553,0,0,1-6.916-12.485,24.361,24.361,0,0,1-.539-6.322c.137-1.493.179-2.987.274-4.468-.307,1.356-.571,2.71-.794,4.087-.232,1.579-.434,3.156-.646,4.733v3.047c.053.3.116.592.149.889.17,1.3.265,2.625.476,3.918a30.8,30.8,0,0,0,11.729,19.73c5.887,4.649,12.685,7.276,19.95,8.832,10.028,2.15,20.13,2.1,30.254.859a138.992,138.992,0,0,0,27.507-6.3,177.715,177.715,0,0,0,65.357-38.43,128.3,128.3,0,0,0,18.2-20.839c.253-.381.486-.762.741-1.124a121,121,0,0,1-12.22,13.788,134.954,134.954,0,0,1-14.211,11.94c.044-.392.053-.594.1-.785q1.714-7.354,3.428-14.7a28.224,28.224,0,0,0,.676-11.3c-.878-5.051-3.874-8.249-8.841-9.333-.467-.1-.922-.2-1.366-.309a4.915,4.915,0,0,1,0-.688,37.369,37.369,0,0,0-.5-11.893,25.731,25.731,0,0,0-7.984-14.116,37.979,37.979,0,0,0-10.462-6.533c-3.516-1.556-7.063-3.048-10.516-4.724a15.437,15.437,0,0,1-6.268-5.316c-.413-.625-.731-1.333-1.1-2a.9.9,0,0,0,.169-.1c1.661,1.282,3.324,2.573,5.143,3.981-.488-2.339-.933-4.436-1.388-6.586.286-.063.529-.137.773-.179a129.1,129.1,0,0,1,34.172-1.091,77.9,77.9,0,0,1,19.047,4.331,41.469,41.469,0,0,1,15.4,9.436,23.51,23.51,0,0,1,6.857,20.586c-.149,1.143-.318,2.286-.509,3.642a5.651,5.651,0,0,0,.244-.625A43.843,43.843,0,0,0,196.622,130.638ZM57.846,178.365c-.053.191-.488.37-.752.381-2.773.021-5.537,0-8.3,0h-6.68c1-4.129,2.1-8.059,6.047-10.314a9.459,9.459,0,0,1,6.682-1.112c2.436.467,3.686,2,3.971,4.617A16.605,16.605,0,0,1,57.846,178.365ZM70.12,131.7c-.636-1.726-1.027-3.537-1.547-5.306-.17-.55.19-.709.571-.889,4.7-2.169,9.352-4.457,14.106-6.476a156.987,156.987,0,0,1,22.46-7.455c.265-.063.53-.1.952-.19-.615,1.43-1.166,2.722-1.714,4.025.053.032.1.074.137.1q3.021-1.983,6.026-4A11.367,11.367,0,0,1,108.37,115a30.235,30.235,0,0,1-8.864,5.221c-4.1,1.661-8.249,3.207-12.325,4.9a37.693,37.693,0,0,0-12.815,8.28c-.72.743-1.375,1.547-2.2,2.476A42.2,42.2,0,0,1,70.12,131.7Zm74.974,25.4a.924.924,0,0,1-.36.592c-1.5.869-3.028,1.7-4.6,2.573-.307-.3-.7-.731-1.133-1.1-2.286-1.939-5.019-2.436-7.9-2.4a17.391,17.391,0,0,0-11.417,4.51c-1.312,1.112-2.562,2.3-3.727,3.358.509-2.308,1.07-4.872,1.651-7.508-.316-.021-.571-.042-.857-.042-4.066,0-8.122.021-12.19-.023-.7,0-.952.2-1.1.869q-2.476,11.31-5.021,22.62c-.1.434-.232.878-.36,1.312-.8,2.606-2.689,3.809-5.3,4.057a26.337,26.337,0,0,1-8.249-.265c-1.333-.3-1.79-.762-1.674-2.118a39.985,39.985,0,0,1,.829-4.992c1.428-6.535,2.912-13.058,4.32-19.58.181-.815.562-1.017,1.3-1.112a42.572,42.572,0,0,0,12.1-3.358,14.9,14.9,0,0,0,5.649-4.855.488.488,0,0,0,.053-.158c-2.857,0-5.666.021-8.483,0a33.347,33.347,0,0,1-15.4-3.619,28.191,28.191,0,0,1-6.3-4.406c.88-.964,1.7-1.948,2.606-2.838a28.326,28.326,0,0,1,9.584-5.931c3.96-1.545,7.984-2.933,11.956-4.436a26.934,26.934,0,0,0,8.163-4.48c1.133-.964,2.118-2.1,3.167-3.145.444.657.9,1.408,1.449,2.1a17.951,17.951,0,0,0,7.472,5.209c3.082,1.3,6.238,2.4,9.318,3.7a27.221,27.221,0,0,1,9.838,6.746,19.274,19.274,0,0,1,4.925,11.3A26.873,26.873,0,0,1,145.094,157.1Zm-22.915-35.878c3.314,1.579,6.714,2.966,10.081,4.438a33.573,33.573,0,0,1,10.857,7.148,24.427,24.427,0,0,1,6.714,13.776,36.532,36.532,0,0,1,.116,9.552c-.021.223-.274.56-.465.583-.762.116-1.558.126-2.383.191.1-1.08.19-2.15.265-3.238.634-9.255-2.954-16.35-10.866-21.254-3.249-2.021-6.872-3.187-10.4-4.6a62.758,62.758,0,0,1-7.544-3.566,10.484,10.484,0,0,1-5.221-6.979c-.1-.446-.253-.88-.381-1.312,0-.023-.032-.032-.149-.139-.19.381-.381.71-.53,1.049a14.916,14.916,0,0,1-7.868,7.92c-3.526,1.579-7.169,2.924-10.8,4.268-4.3,1.589-8.609,3.166-12.4,5.845a29.353,29.353,0,0,0-2.945,2.392c-.92.869-1.747,1.844-2.7,2.857-.615-.72-1.261-1.451-1.853-2.225-.086-.107.042-.467.17-.636a27.427,27.427,0,0,1,6.628-6.215c3.9-2.636,8.228-4.331,12.559-6.057,3.855-1.531,7.708-3.1,11.459-4.884a20.82,20.82,0,0,0,8.047-6.7,8.872,8.872,0,0,1,.592-.678c.71,1.068,1.333,2.139,2.1,3.112A18.5,18.5,0,0,0,122.178,121.223Z" transform="translate(0)" fill="#18522e"/>
    <path id="Path_2338" data-name="Path 2338" d="M646.318,429.249c.59,0,1.049-.036,1.5.01.613.065.876-.143,1.023-.775.547-2.365,1.166-4.716,1.758-7.07.25-.994.432-1.125,1.406-.743a18.691,18.691,0,0,1,1.941,1.027c.154-.571.278-1.143.465-1.687s-.027-.788-.52-.952a12.07,12.07,0,0,0-7.975.051c-.19.069-.463.214-.514.381-.208.669-.343,1.358-.529,2.147,1.2-.52,2.224-1.219,3.607-1.143C647.752,423.427,647.045,426.3,646.318,429.249Z" transform="translate(-513.835 -275.024)" fill="#076033"/>
    <path id="Path_2339" data-name="Path 2339" d="M575.078,429.318c.59.063.777-.215.9-.733.484-1.966.964-3.935,1.535-5.876a7.139,7.139,0,0,1,1.027-2c.316-.457.783-.345.844.206a6.431,6.431,0,0,1-.1,2.084c-.461,2.074-1,4.129-1.541,6.307.644,0,1.177-.023,1.714,0,.482.028.7-.12.825-.63.478-1.994.985-3.983,1.552-5.954a9.428,9.428,0,0,1,.912-1.9c.1-.179.465-.381.6-.331a.883.883,0,0,1,.444.613,4.181,4.181,0,0,1-.051,1.36c-.274,1.287-.6,2.562-.914,3.842-.238.968-.484,1.933-.751,2.994.691,0,1.248-.025,1.8,0,.436.027.615-.131.718-.56.4-1.7.918-3.375,1.261-5.086a15.28,15.28,0,0,0,.2-3.065,1.919,1.919,0,0,0-1.266-1.9,2.32,2.32,0,0,0-2.476.461c-.3.253-.589.53-.888.8-.953-1.629-2.126-1.9-3.661-.815a6.1,6.1,0,0,0-1.3,1.261c-1.989,2.605-2.048,5.868-3.1,8.925A17.028,17.028,0,0,1,575.078,429.318Z" transform="translate(-455.945 -275.079)" fill="#076033"/>
    <path id="Path_2340" data-name="Path 2340" d="M532.608,421.843a1.77,1.77,0,0,0-1.8-2.522c-.678-.03-1.368,0-2.055-.01a4.461,4.461,0,0,0-4.533,2.838c-.953,2.5-1.566,5.126-2.36,7.794,2.265,0,4.287.063,6.31-.011a4,4,0,0,0,3.665-2.647c.646-1.524.372-2.318-1.091-3.177C532.109,422.974,532.374,422.658,532.608,421.843Zm-2.954,4.807a1.737,1.737,0,0,1-1.769,1.482c-1,.053-2.011.011-3.165.011.211-.88.381-1.674.6-2.436a.721.721,0,0,1,.55-.35c.932-.03,1.874-.03,2.806,0C529.547,425.389,529.854,425.823,529.654,426.65Zm-.88-3.114c-.922.063-1.863.021-2.838.021.328-2.065,1.981-3.029,3.781-2.267a1.024,1.024,0,0,1,.455.817A1.423,1.423,0,0,1,528.774,423.536Z" transform="translate(-414.254 -275.754)" fill="#18522e"/>
    <g id="Group_632" data-name="Group 632" transform="translate(228.535 100.335)">
      <path id="Path_2361" data-name="Path 2361" d="M649.7,454.559c1.968,0,3.5-.121,5,.032,2.044.216,2.921-.476,3.409-2.584,1.823-7.887,3.886-15.723,5.861-23.572.833-3.315,1.442-3.753,4.687-2.477a62.354,62.354,0,0,1,6.47,3.423c.515-1.905.928-3.81,1.549-5.627s-.088-2.629-1.733-3.174a40.235,40.235,0,0,0-26.588.171c-.636.229-1.543.712-1.715,1.27-.692,2.229-1.142,4.528-1.765,7.157,4-1.734,7.416-4.064,12.027-3.81C654.478,435.147,652.122,444.73,649.7,454.559Z" transform="translate(-566.758 -418.405)" fill="#18522e"/>
      <path id="Path_2359" data-name="Path 2359" d="M579.087,454.629c1.969.21,2.592-.718,3.01-2.445,1.614-6.554,3.214-13.119,5.118-19.59a23.816,23.816,0,0,1,3.423-6.668c1.055-1.525,2.61-1.149,2.814.685a21.41,21.41,0,0,1-.337,6.947c-1.536,6.915-3.339,13.767-5.136,21.025,2.146,0,3.925-.076,5.714,0,1.607.1,2.345-.4,2.751-2.1,1.594-6.648,3.283-13.278,5.176-19.85a31.371,31.371,0,0,1,3.042-6.35c.343-.6,1.549-1.27,2-1.105a2.94,2.94,0,0,1,1.479,2.045,13.928,13.928,0,0,1-.171,4.534c-.914,4.293-2.006,8.541-3.048,12.808-.794,3.226-1.613,6.445-2.5,9.982,2.3,0,4.16-.082,6,0,1.454.089,2.051-.438,2.395-1.867,1.346-5.664,3.061-11.252,4.2-16.954a50.9,50.9,0,0,0,.661-10.217,6.4,6.4,0,0,0-4.223-6.35,7.735,7.735,0,0,0-8.255,1.537c-1.016.844-1.962,1.765-2.959,2.673-3.175-5.429-7.086-6.35-12.205-2.717a20.359,20.359,0,0,0-4.343,4.2c-6.629,8.687-6.827,19.565-10.331,29.756A56.674,56.674,0,0,1,579.087,454.629Z" transform="translate(-540.656 -418.43)" fill="#18522e"/>
      <path id="Path_2360" data-name="Path 2360" d="M557.694,427.761c1.41-4.978-.781-8.122-6-8.407-2.261-.1-4.56,0-6.852-.032-7.061-.07-12.636,3.067-15.113,9.462-3.175,8.332-5.22,17.089-7.868,25.985,7.55,0,14.294.209,21.037-.038,5.83-.248,9.926-3.461,12.218-8.826,2.153-5.08,1.239-7.728-3.639-10.592C556.03,431.533,556.912,430.479,557.694,427.761Zm-9.85,16.028c-.743,3.105-2.578,4.762-5.9,4.94s-6.706.038-10.553.038c.7-2.934,1.27-5.582,2.012-8.122a2.4,2.4,0,0,1,1.836-1.169c3.105-.1,6.249-.1,9.354,0C547.489,439.585,548.511,441.033,547.844,443.789Zm-2.933-10.383c-3.074.21-6.211.07-9.462.07,1.092-6.884,6.6-10.1,12.6-7.557a3.418,3.418,0,0,1,1.518,2.724A4.744,4.744,0,0,1,544.911,433.406Z" transform="translate(-521.86 -418.735)" fill="#18522e"/>
    </g>
    <path id="Path_2341" data-name="Path 2341" d="M262.178,94.469l-2.716-.171c-16.043-1.017-32.023,8.47-38.691,23a30.508,30.508,0,0,0-2.817,16.22c1.04,9.5,5.805,16.744,13.824,21.848a32.357,32.357,0,0,0,15.786,5.013c2.575.143,5.163.025,7.75.025-1.055.457-2.145.971-3.265,1.409a44.95,44.95,0,0,1-18.31,3.217c-9.7-.381-18.351-3.493-25.475-10.259a31.416,31.416,0,0,1-9.828-18.879c-1.463-10.508,1.459-19.885,7.883-28.157a45.733,45.733,0,0,1,28.9-17.332,41.2,41.2,0,0,1,25.825,3.343c.381.19.762.381,1.143.583Z" transform="translate(-152.133 -8.896)" fill="url(#radial-gradient)"/>
    <path id="Path_2342" data-name="Path 2342" d="M529.54,533.222c.429-1.851.832-3.619,1.248-5.4,1.011-4.323,1.937-8.67,3.068-12.963a22.485,22.485,0,0,1,8.963-13.207A15.059,15.059,0,0,1,554.672,499a6.89,6.89,0,0,1,5.32,4,1.82,1.82,0,0,0,.147.267.688.688,0,0,0,.139.107c.709-.6,1.408-1.225,2.139-1.808a12.855,12.855,0,0,1,11.856-2.329c3.979,1.036,5.929,3.842,6.638,7.7a25.088,25.088,0,0,1-.648,10.262c-1.156,5.047-2.345,10.095-3.48,15.136-.171.762-.472,1.019-1.266,1-2.844-.049-5.691-.017-8.537-.021-.3,0-.59-.034-.964-.055.544-2.362,1.082-4.63,1.59-6.9q1.537-6.872,3.036-13.75a27.385,27.385,0,0,0,.369-2.8,5.523,5.523,0,0,0-.625-3.306,2.133,2.133,0,0,0-3.619-.562,12.462,12.462,0,0,0-3.394,5.941c-1.619,6.84-3.261,13.673-4.861,20.519-.162.7-.425.941-1.154.929-2.87-.042-5.741-.015-8.613-.019-.952,0-.973-.034-.762-.935,1.41-6.211,2.846-12.416,4.209-18.639.314-1.43.381-2.912.571-4.381a4.9,4.9,0,0,0-.653-2.92,2.1,2.1,0,0,0-3.51-.56,11.732,11.732,0,0,0-3.259,5.333q-1.523,6.095-2.99,12.19c-.735,3.059-1.43,6.129-2.135,9.2-.091.4-.19.706-.71.7-3.15-.015-6.3,0-9.453-.013A3.646,3.646,0,0,1,529.54,533.222Z" transform="translate(-420.472 -340.037)" fill="#fdc426"/>
    <path id="Path_2343" data-name="Path 2343" d="M125.353,532.986c.436-2.065.848-4.015,1.276-6.051-.36-.017-.632-.042-.9-.042q-8.88,0-17.759-.015c-.674,0-.987.15-1.11.867-.274,1.575-.636,3.133-1.015,4.687-.057.238-.39.585-.6.587-3.249.029-6.5,0-9.752,0-.048,0-.093-.036-.242-.1.24-1.054.48-2.128.728-3.2,1.074-4.647,2.042-9.333,3.251-13.937,2.449-9.356,8.706-14.765,18.018-16.723a27.3,27.3,0,0,1,13.794.442c4.6,1.413,7.775,4.314,8.9,9.131a18.754,18.754,0,0,1-.427,8.668q-1.743,7.451-3.449,14.908c-.145.636-.381.87-1.053.863-2.922-.032-5.844-.013-8.761-.015C126,533.047,125.753,533.014,125.353,532.986Zm-16.675-12.558a2.983,2.983,0,0,0,.486.077q9.177,0,18.351.011c.425,0,.663-.134.762-.554a54.141,54.141,0,0,0,1.291-6.244c.444-4.912-1.7-8.883-7.765-8.761a11.484,11.484,0,0,0-10.262,6.285c-1.6,2.8-2.114,5.952-2.9,9.015C108.615,520.282,108.651,520.337,108.678,520.428Z" transform="translate(-68.899 -339.768)" fill="#fdc426"/>
    <path id="Path_2344" data-name="Path 2344" d="M372.3,500.358c-.288,1.3-.571,2.585-.855,3.865q-2.008,9.064-4.017,18.133c-1.524,6.942-5.946,10.923-12.761,12.43a49.314,49.314,0,0,1-13.333.849,29.092,29.092,0,0,1-7.122-1.143c-3.088-.966-5.445-2.729-6.285-6.023a12.666,12.666,0,0,1,.139-5.96c1.573-7.083,3.16-14.163,4.7-21.252.167-.762.457-1.017,1.255-1,2.691.055,5.384.021,8.076.021h1.027c-.152.752-.272,1.39-.413,2.023-1.476,6.638-2.994,13.264-4.4,19.917a13.076,13.076,0,0,0-.1,3.914,2.731,2.731,0,0,0,2.135,2.434,23.714,23.714,0,0,0,11.224.276,6.276,6.276,0,0,0,4.87-4.167,58.836,58.836,0,0,0,1.726-6.457c1.312-5.737,2.568-11.489,3.844-17.233.086-.381.149-.718.689-.714,3.074.019,6.147,0,9.221.015A2.327,2.327,0,0,1,372.3,500.358Z" transform="translate(-257.015 -341.285)" fill="#fdc426"/>
    <g id="Group_631" data-name="Group 631" transform="translate(204.492 143.447)">
      <path id="Path_2362" data-name="Path 2362" d="M529.54,570.117c.887-3.831,1.722-7.488,2.581-11.177,2.093-8.946,4.008-17.94,6.349-26.823,2.956-11.228,8.883-20.6,18.547-27.327,7.409-5.163,15.575-7.2,24.525-5.474,4.982.954,8.836,3.519,11.007,8.276a3.8,3.8,0,0,0,.3.552,1.4,1.4,0,0,0,.288.22c1.466-1.245,2.912-2.534,4.426-3.74,7.338-5.837,15.591-7.149,24.533-4.82,8.233,2.144,12.269,7.949,13.735,15.93,1.324,7.188.268,14.235-1.34,21.235-2.392,10.444-4.851,20.888-7.2,31.32-.354,1.576-.977,2.108-2.621,2.077-5.884-.1-11.776-.035-17.664-.043-.611,0-1.222-.071-1.994-.114,1.127-4.887,2.238-9.58,3.29-14.286q3.18-14.219,6.282-28.45a56.548,56.548,0,0,0,.765-5.786,11.43,11.43,0,0,0-1.292-6.841c-1.675-3.133-4.982-3.7-7.488-1.162a25.78,25.78,0,0,0-7.023,12.292c-3.35,14.152-6.748,28.293-10.057,42.458-.335,1.45-.879,1.947-2.389,1.923-5.939-.087-11.879-.032-17.821-.039-1.97,0-2.014-.071-1.577-1.936,2.916-12.851,5.888-25.691,8.71-38.567.65-2.959.789-6.026,1.182-9.064a10.127,10.127,0,0,0-1.352-6.041c-1.545-2.96-4.919-3.567-7.264-1.159-3.082,3.153-5.655,6.66-6.743,11.035q-3.152,12.611-6.187,25.223c-1.521,6.329-2.96,12.682-4.418,19.027-.189.828-.394,1.462-1.47,1.458-6.518-.032-13.037,0-19.56-.027A7.564,7.564,0,0,1,529.54,570.117Z" transform="translate(-358.383 -498.582)" fill="#fdc426"/>
      <path id="Path_2364" data-name="Path 2364" d="M157.539,569.983c.9-4.272,1.754-8.308,2.64-12.521-.745-.035-1.308-.087-1.868-.087q-18.373,0-36.746-.031c-1.4,0-2.042.311-2.3,1.793-.568,3.259-1.316,6.483-2.1,9.7-.118.493-.808,1.21-1.238,1.214-6.723.059-13.451,0-20.178,0-.1,0-.193-.075-.5-.208.5-2.18.993-4.4,1.506-6.625,2.223-9.616,4.225-19.312,6.727-28.837,5.068-19.359,18.015-30.551,37.282-34.6a56.474,56.474,0,0,1,28.541.914c9.514,2.924,16.087,8.927,18.421,18.893,1.419,6.038.5,12.009-.883,17.936q-3.606,15.417-7.137,30.846c-.3,1.317-.788,1.8-2.179,1.786-6.045-.067-12.091-.028-18.129-.032C158.879,570.109,158.366,570.042,157.539,569.983ZM123.035,544a6.134,6.134,0,0,0,1,.158q18.988,0,37.972.023c.879,0,1.372-.276,1.576-1.146.91-4.309,2.282-8.568,2.672-12.919.918-10.164-3.512-18.381-16.068-18.129-9.522.181-16.552,4.772-21.234,13.006-3.311,5.793-4.375,12.316-6.01,18.653C122.9,543.7,122.979,543.81,123.035,544Z" transform="translate(-95.25 -498.382)" fill="#fdc426"/>
      <path id="Path_2363" data-name="Path 2363" d="M420.057,500.467c-.595,2.7-1.182,5.348-1.769,8q-4.154,18.756-8.312,37.519c-3.153,14.365-12.3,22.6-26.405,25.72-9.1,2.01-18.326,2.25-27.588,1.757a60.18,60.18,0,0,1-14.735-2.365c-6.389-2-11.268-5.648-13.006-12.462-1.056-4.11-.619-8.241.288-12.332,3.255-14.657,6.538-29.306,9.735-43.974.347-1.577.946-2.1,2.6-2.069,5.569.115,11.141.043,16.71.043H359.7c-.315,1.557-.564,2.877-.856,4.185-3.054,13.735-6.2,27.446-9.108,41.212a27.051,27.051,0,0,0-.205,8.1,5.652,5.652,0,0,0,4.418,5.037,49.069,49.069,0,0,0,23.225.571,12.985,12.985,0,0,0,10.077-8.623,121.706,121.706,0,0,0,3.57-13.36c2.715-11.87,5.313-23.772,7.953-35.659.177-.788.308-1.486,1.426-1.478,6.361.039,12.718,0,19.079.031a4.759,4.759,0,0,1,.78.15Z" transform="translate(-236.044 -499.518)" fill="#fdc426"/>
    </g>
    <path id="Path_2345" data-name="Path 2345" d="M509.538,171.718c2,0,4-.019,6,.013a.923.923,0,0,0,1.015-.657c.709-1.714,1.47-3.4,2.213-5.093.1-.225.21-.442.41-.861.345,1.524.634,2.847.952,4.166.191.806.191,1.886.7,2.32.488.408,1.549.143,2.358.15h4.43c-.43.3-.682.49-.941.663-1.491,1.011-2.971,2.04-4.485,3.019a.951.951,0,0,0-.48,1.187c.446,1.9.848,3.809,1.316,5.931l-1.333-1.036c-1.143-.893-2.286-1.769-3.409-2.687a.739.739,0,0,0-1.057-.046c-1.543,1.072-3.11,2.11-4.668,3.158-.208.139-.423.265-.8.5.16-.438.246-.712.358-.975.686-1.611,1.354-3.238,2.08-4.821a.854.854,0,0,0-.3-1.259c-1.5-1.116-2.956-2.3-4.426-3.463Z" transform="translate(-404.224 -69.981)" fill="url(#radial-gradient-2)"/>
  </g>
</svg>
